<?xml version="1.0" encoding="UTF-8" standalone="no"?>
<!-- Created with Inkscape (http://www.inkscape.org/) -->

<svg
   width="210mm"
   height="297mm"
   viewBox="0 0 210 297"
   version="1.1"
   id="svg1"
   inkscape:version="1.3.2 (091e20e, 2023-11-25, custom)"
   sodipodi:docname="Wasd.svg"
   xmlns:inkscape="http://www.inkscape.org/namespaces/inkscape"
   xmlns:sodipodi="http://sodipodi.sourceforge.net/DTD/sodipodi-0.dtd"
   xmlns="http://www.w3.org/2000/svg"
   xmlns:svg="http://www.w3.org/2000/svg">
  <sodipodi:namedview
     id="namedview1"
     pagecolor="#ffffff"
     bordercolor="#000000"
     borderopacity="0.25"
     inkscape:showpageshadow="2"
     inkscape:pageopacity="0.0"
     inkscape:pagecheckerboard="0"
     inkscape:deskcolor="#d1d1d1"
     inkscape:document-units="mm"
     inkscape:zoom="0.1280329"
     inkscape:cx="-2225.9903"
     inkscape:cy="-1237.963"
     inkscape:window-width="1920"
     inkscape:window-height="1009"
     inkscape:window-x="-8"
     inkscape:window-y="-8"
     inkscape:window-maximized="1"
     inkscape:current-layer="layer1" />
  <defs
     id="defs1" />
  <g
     inkscape:label="Layer 1"
     inkscape:groupmode="layer"
     id="layer1">
    <g
       id="g5">
      <rect
         style="fill:#000000;fill-opacity:0.875;stroke-width:0.157163"
         id="rect2"
         width="19.818264"
         height="18.996307"
         x="98.927475"
         y="62.213451"
         ry="4.9317341" />
      <rect
         style="fill:#000000;fill-opacity:0.875;stroke-width:0.157163"
         id="rect3"
         width="19.818264"
         height="18.996307"
         x="119.2561"
         y="81.647606"
         ry="4.9317341" />
      <rect
         style="fill:#000000;fill-opacity:0.875;stroke-width:0.157163"
         id="rect4"
         width="19.818264"
         height="18.996307"
         x="99"
         y="81.464943"
         ry="4.9317341" />
      <rect
         style="fill:#000000;fill-opacity:0.875;stroke-width:0.157163"
         id="rect5"
         width="19.818264"
         height="18.996307"
         x="78.83522"
         y="81.373611"
         ry="4.9317341" />
    </g>
    <rect
       style="fill:#ffffff;fill-opacity:1;stroke-width:0.207099"
       id="rect7"
       width="0.91328412"
       height="7.9455719"
       x="65.716293"
       y="105.86855"
       ry="0.27977365"
       transform="rotate(-24.522093)" />
    <rect
       style="fill:#ffffff;fill-opacity:1;stroke-width:0.207099"
       id="rect8"
       width="0.91328412"
       height="7.9455719"
       x="-132.57607"
       y="15.509552"
       ry="0.27977365"
       transform="matrix(-0.9098013,-0.41504409,-0.41504409,0.9098013,0,0)" />
    <rect
       style="fill:#ffffff;fill-opacity:1;stroke-width:0.140426"
       id="rect9"
       width="0.91328412"
       height="3.6531365"
       x="130.05562"
       y="13.027425"
       ry="0.12863156"
       transform="rotate(28.072487)" />
    <rect
       style="fill:#ffffff;fill-opacity:1;stroke-width:0.140426"
       id="rect10"
       width="0.91328412"
       height="3.6531365"
       x="-62.229389"
       y="115.57939"
       ry="0.12863156"
       transform="matrix(-0.88235294,0.47058824,0.47058824,0.88235294,0,0)"
       inkscape:transform-center-x="1.0046125"
       inkscape:transform-center-y="-0.091328413" />
    <g
       id="g24"
       transform="translate(1.0046125,-0.09132841)">
      <rect
         style="fill:#ffffff;fill-opacity:1;stroke-width:0.207099"
         id="rect11"
         width="0.91328412"
         height="7.9455719"
         x="42.808632"
         y="115.59521"
         ry="0.27977365"
         transform="rotate(-24.522093)" />
      <rect
         style="fill:#ffffff;fill-opacity:1;stroke-width:0.207099"
         id="rect12"
         width="0.91328412"
         height="7.9455719"
         x="-116.348"
         y="43.089611"
         ry="0.27977365"
         transform="matrix(-0.9098013,-0.41504409,-0.41504409,0.9098013,0,0)" />
      <rect
         style="fill:#ffffff;fill-opacity:1;stroke-width:0.140426"
         id="rect13"
         width="0.91328412"
         height="3.6531365"
         x="90.50058"
         y="-89.743843"
         ry="0.12863156"
         transform="rotate(90.302262)" />
    </g>
    <path
       style="fill:#ffffff;fill-opacity:1;stroke-width:0.310982"
       id="path25"
       sodipodi:type="arc"
       sodipodi:cx="-96.73365"
       sodipodi:cy="123.22621"
       sodipodi:rx="5.477735"
       sodipodi:ry="6.7493243"
       sodipodi:start="0"
       sodipodi:end="3.166658"
       sodipodi:arc-type="slice"
       d="m -91.255915,123.22621 a 5.477735,6.7493243 0 0 1 -2.778598,5.87308 5.477735,6.7493243 0 0 1 -5.51689,-0.0852 5.477735,6.7493243 0 0 1 -2.658257,-5.95703 l 5.47601,0.16915 z"
       transform="matrix(-0.03128746,-0.99951043,0.99896878,-0.04540246,0,0)" />
    <path
       style="fill:#000000;fill-opacity:0.875;stroke-width:0.208315"
       id="path26"
       sodipodi:type="arc"
       sodipodi:cx="-96.655952"
       sodipodi:cy="123.9034"
       sodipodi:rx="3.6693263"
       sodipodi:ry="4.5211158"
       sodipodi:start="0"
       sodipodi:end="3.166658"
       sodipodi:arc-type="slice"
       d="m -92.986626,123.9034 a 3.6693263,4.5211158 0 0 1 -1.861277,3.93415 3.6693263,4.5211158 0 0 1 -3.695555,-0.0571 3.6693263,4.5211158 0 0 1 -1.780672,-3.99039 l 3.668178,0.11331 z"
       transform="matrix(-0.03128746,-0.99951043,0.99896878,-0.04540246,0,0)" />
    <path
       style="fill:#ffffff;fill-opacity:0.875;stroke-width:0.208299"
       id="path27"
       d="m 109.92707,86.740321 c -0.40868,-0.007 -0.81762,-0.0016 -1.22577,-0.02629 -0.37265,-0.01889 -0.74315,-0.110295 -1.11394,-0.03819 -0.25209,0.07468 -0.41583,0.291838 -0.57644,0.501346 -0.156,0.225611 -0.2924,0.468153 -0.42231,0.712529 -0.14732,0.297714 -0.16103,0.436956 -0.003,0.734988 0.0369,0.04166 0.071,0.08642 0.11057,0.124959 0.13555,0.131823 0.33627,0.274712 0.49433,0.374747 0.87861,0.55605 1.75948,1.107842 2.6392,1.661761 0.15373,0.07453 0.29783,0.178978 0.45349,0.248826 0.0914,0.04098 0.18739,0.06835 0.28045,0.104511 0.31896,0.149156 0.65682,0.23469 0.98557,0.352359 0.29411,0.06954 0.58199,0.161304 0.86706,0.26545 0.12697,0.04472 0.26231,0.0571 0.38776,0.107686 0.0848,0.0342 0.12108,0.06482 0.19577,0.116206 -0.81829,-0.508578 -1.63657,-1.017158 -2.45484,-1.525735 0.19684,0.102614 0.28462,0.327095 0.35301,0.53933 0.0497,0.177551 0.0792,0.355176 0.0437,0.537671 -0.0373,0.18497 -0.12019,0.353589 -0.19281,0.52443 -0.0849,0.189694 -0.14079,0.398591 -0.26809,0.561461 -0.175,0.171268 -0.40266,0.26218 -0.62169,0.346108 -0.22022,0.05785 -0.42541,0.166566 -0.6474,0.215077 -0.26226,0.07178 -0.52635,0.139925 -0.79248,0.193849 -0.30412,0.09105 -0.6173,0.121509 -0.93097,0.139644 -0.35083,0.01536 -0.70196,0.01502 -1.05296,0.0087 -0.25179,0.01307 -0.48828,-0.08513 -0.72478,-0.164741 0,0 2.3489,1.961482 2.3489,1.961482 v 0 c 0.24863,0.06762 0.49783,0.101009 0.7547,0.07909 0.35248,-0.0077 0.70538,-0.0076 1.05737,-0.03055 0.32319,-0.02725 0.64027,-0.08496 0.95522,-0.168953 0.27792,-0.05877 0.55636,-0.116574 0.83055,-0.193668 0.21806,-0.07721 0.43098,-0.170926 0.64594,-0.257619 0.26342,-0.119527 0.53078,-0.233332 0.7259,-0.470523 0.0261,-0.03529 0.0552,-0.06817 0.0783,-0.105878 0.0982,-0.160281 0.12774,-0.363371 0.22366,-0.525419 0.0844,-0.189367 0.18941,-0.372135 0.22946,-0.580118 0.0609,-0.259072 0.0783,-0.427683 0.0132,-0.69159 -0.0571,-0.259888 -0.13489,-0.514047 -0.26656,-0.742137 -0.90703,-0.570528 -1.72258,-1.386056 -2.733,-1.689096 -0.16394,-0.04917 -0.33229,-0.08223 -0.49201,-0.147726 -0.28062,-0.09135 -0.56897,-0.15016 -0.84769,-0.248759 -0.33404,-0.110069 -0.66385,-0.231537 -0.98585,-0.378793 -0.2459,-0.112554 -0.48073,-0.252458 -0.71324,-0.394347 0.80009,0.504932 1.59878,1.012485 2.40027,1.514798 0.042,0.0264 -0.0808,-0.05862 -0.12198,-0.08691 -0.12672,-0.08736 -0.25197,-0.180344 -0.38163,-0.262408 -0.0379,-0.02402 -0.0774,-0.04507 -0.11608,-0.06761 -0.14405,-0.09933 -0.0359,-0.01667 -0.15075,-0.123908 -0.11147,-0.104082 -0.0534,-0.110803 -0.006,-0.254915 0.10827,-0.233354 0.23021,-0.461267 0.39069,-0.657427 0.12261,-0.157066 0.25119,-0.290165 0.45011,-0.302074 0.34115,-0.01722 0.68322,0.03131 1.02437,0.03414 0.43244,0.01981 0.86791,0.02806 1.29556,0.106692 z" />
  </g>
</svg>
